<svg height="512" viewBox="0 0 128 128" width="512" xmlns="http://www.w3.org/2000/svg"><g><path d="m87.073 40.762h-46.146a1.749 1.749 0 0 0 -1.75 1.75v7.794a1.75 1.75 0 0 0 1.75 1.75h.614v33.432a1.749 1.749 0 0 0 1.75 1.75h41.418a1.749 1.749 0 0 0 1.75-1.75v-33.432h.614a1.75 1.75 0 0 0 1.75-1.75v-7.794a1.749 1.749 0 0 0 -1.75-1.75zm-1.75 7.794h-15.665v-4.294h15.665zm-23.481-4.294h4.316v12.609l-1.279-.743a1.753 1.753 0 0 0 -1.758 0l-1.279.743zm-19.165 0h15.665v4.294h-15.665zm40.282 39.476h-37.918v-31.682h13.3v7.855a1.75 1.75 0 0 0 2.629 1.514l3.03-1.76 3.029 1.76a1.75 1.75 0 0 0 2.629-1.514v-7.855h13.3z"/><path d="m64 35.321a1.749 1.749 0 0 0 1.75-1.75v-8.139a1.75 1.75 0 0 0 -3.5 0v8.139a1.749 1.749 0 0 0 1.75 1.75z"/><path d="m64 92.679a1.749 1.749 0 0 0 -1.75 1.75v8.139a1.75 1.75 0 0 0 3.5 0v-8.139a1.749 1.749 0 0 0 -1.75-1.75z"/><path d="m35.321 64a1.749 1.749 0 0 0 -1.75-1.75h-8.139a1.75 1.75 0 0 0 0 3.5h8.139a1.749 1.749 0 0 0 1.75-1.75z"/><path d="m102.568 62.25h-8.139a1.75 1.75 0 0 0 0 3.5h8.139a1.75 1.75 0 0 0 0-3.5z"/><path d="m90.961 38.789a1.743 1.743 0 0 0 1.237-.513l4.122-4.122a1.749 1.749 0 1 0 -2.474-2.474l-4.122 4.12a1.75 1.75 0 0 0 1.237 2.987z"/><path d="m92.2 89.724a1.749 1.749 0 0 0 -2.476 2.476l4.122 4.122a1.749 1.749 0 0 0 2.474-2.474z"/><path d="m35.8 89.724-4.12 4.122a1.749 1.749 0 1 0 2.474 2.474l4.122-4.12a1.749 1.749 0 0 0 -2.476-2.476z"/><path d="m34.154 31.68a1.749 1.749 0 0 0 -2.474 2.474l4.12 4.122a1.749 1.749 0 0 0 2.476-2.476z"/></g></svg>